# xmcd
#
# Track frame offsets:
#	150
#	28808
#	51137
#	72150
#	93971
#	100125
#	119277
#	135987
#	158743
#
# Disc length: 2549 seconds
#
# Revision: 0
# Processed by: cddbd v1.5.2PL0 Copyright (c) Steve Scherf et al.
# Submitted via: audiograbber 1.83.01
#
DISCID=6d09f309
DTITLE=The Eagles - Hotel California
DYEAR=1976
DGENRE=Southern Rock
TTITLE0=Hotel California
TTITLE1=New Kid In Town
TTITLE2=Life In The Fast Lane
TTITLE3=Wasted Time
TTITLE4=Wasted Time (Reprise)
TTITLE5=Victim Of Love
TTITLE6=Pretty Maids All In A Row
TTITLE7=Try And Love Again
TTITLE8=The Last Resort
EXTD=
EXTT0=
EXTT1=
EXTT2=
EXTT3=
EXTT4=
EXTT5=
EXTT6=
EXTT7=
EXTT8=
PLAYORDER=
